<?xml version="1.0" encoding="iso-8859-1"?>
<!-- Generator: Adobe Illustrator 19.0.0, SVG Export Plug-In . SVG Version: 6.00 Build 0)  -->
<svg version="1.1" id="Capa_1" xmlns="http://www.w3.org/2000/svg" xmlns:xlink="http://www.w3.org/1999/xlink" x="0px" y="0px"
	 viewBox="0 0 512 512" style="enable-background:new 0 0 512 512;" xml:space="preserve">
<g>
	<g>
		<path d="M177.479,330.81c-1.859-1.86-4.439-2.92-7.069-2.92c-2.631,0-5.21,1.061-7.07,2.92c-1.86,1.87-2.93,4.45-2.93,7.07
			c0,2.64,1.069,5.21,2.93,7.07c1.86,1.869,4.439,2.93,7.07,2.93c2.63,0,5.21-1.061,7.069-2.93c1.86-1.86,2.931-4.431,2.931-7.07
			C180.41,335.26,179.34,332.68,177.479,330.81z"/>
	</g>
</g>
<g>
	<g>
		<path d="M512,339.906c0-20.195-14.191-37.128-33.122-41.38c4.482-6.724,7.101-14.792,7.101-23.461
			c0-23.39-19.029-42.419-42.419-42.419H332.28l14.557-43.217c5.875-17.441,4.471-36.058-3.952-52.421
			c-8.423-16.362-22.759-28.322-40.365-33.675L284.975,98c-5.099-1.551-10.503,1.163-12.313,6.165l-27.569,76.194
			c-7.825,21.625-23.256,39.59-43.451,50.586l-27.541,14.998c-5.924-8.056-15.462-13.296-26.205-13.296H10c-5.522,0-10,4.478-10,10
			v259.352c0,5.522,4.478,10,10,10h137.896c11.963,0,22.43-6.499,28.076-16.147l14.115,5.536C208.045,508.43,226.93,512,246.217,512
			h174.735c23.39,0,42.419-19.029,42.419-42.419c0-8.739-2.658-16.867-7.205-23.624c18.572-4.513,32.406-21.274,32.406-41.214
			c0-8.911-2.768-17.185-7.481-24.019C498.903,375.694,512,359.306,512,339.906z M469.581,362.324h-23.428h-45.926h-33.501
			c-5.522,0-10,4.478-10,10c0,5.522,4.478,10,10,10h33.501h45.926c12.362,0,22.419,10.057,22.419,22.419
			s-10.057,22.419-22.419,22.419h-25.201h-50.819h-3.406c-5.522,0-10,4.478-10,10c0,5.522,4.478,10,10,10h3.406h50.819
			c12.362,0,22.419,10.057,22.419,22.419S433.314,492,420.952,492H246.217c-16.778,0-33.206-3.106-48.828-9.232l-16.979-6.659V378
			c0-5.522-4.478-10-10-10c-5.522,0-10,4.478-10,10v101.484c0,6.9-5.613,12.514-12.514,12.514H20V252.646h127.896
			c6.9,0,12.514,5.613,12.514,12.514v33.955c0,5.522,4.478,10,10,10c5.522,0,10-4.478,10-10V265.28l30.797-16.771
			c24.491-13.335,43.204-35.121,52.693-61.346l24.34-67.268l8.462,2.572c12.389,3.767,22.475,12.181,28.401,23.694
			c5.927,11.513,6.914,24.611,2.781,36.882l-19,56.409c-1.028,3.052-0.523,6.411,1.354,9.026c1.879,2.615,4.902,4.166,8.122,4.166
			h125.2c12.362,0,22.419,10.057,22.419,22.419s-10.057,22.419-22.419,22.419h-76.834c-5.522,0-10,4.478-10,10
			c0,5.522,4.478,10,10,10h33.443c0.02,0,0.039,0.003,0.058,0.003h69.354c12.362,0,22.419,10.057,22.419,22.419
			C492,352.268,481.943,362.324,469.581,362.324z"/>
	</g>
</g>
<g>
	<g>
		<path d="M109.173,415.53c-15.445,0-28.011,12.565-28.011,28.01s12.565,28.011,28.011,28.011c15.446,0,28.011-12.565,28.011-28.011
			C137.184,428.096,124.618,415.53,109.173,415.53z M109.173,451.551c-4.417,0-8.011-3.594-8.011-8.011s3.594-8.01,8.011-8.01
			c4.417,0,8.011,3.593,8.011,8.01C117.184,447.957,113.59,451.551,109.173,451.551z"/>
	</g>
</g>
<g>
	<g>
		<path d="M305.889,2.93C304.028,1.07,301.45,0,298.819,0c-2.63,0-5.21,1.069-7.069,2.93c-1.86,1.86-2.931,4.44-2.931,7.07
			s1.07,5.21,2.931,7.069c1.859,1.861,4.439,2.931,7.069,2.931c2.631,0,5.21-1.07,7.07-2.931c1.86-1.859,2.93-4.439,2.93-7.069
			S307.75,4.79,305.889,2.93z"/>
	</g>
</g>
<g>
	<g>
		<path d="M298.82,37.333c-5.522,0-10,4.478-10,10v24.334c0,5.522,4.478,10,10,10c5.522,0,10-4.478,10-10V47.333
			C308.82,41.811,304.343,37.333,298.82,37.333z"/>
	</g>
</g>
<g>
	<g>
		<path d="M430.059,131.266h-61.666c-5.523,0-10,4.477-10,10c0,5.522,4.478,10,10,10h61.666c5.522,0,10-4.478,10-10
			C440.059,135.744,435.581,131.266,430.059,131.266z"/>
	</g>
</g>
<g>
	<g>
		<path d="M229.221,131.239h-61.667c-5.522,0-10,4.478-10,10c0,5.522,4.477,10,10,10h61.667c5.522,0,10-4.478,10-10
			C239.221,135.717,234.743,131.239,229.221,131.239z"/>
	</g>
</g>
<g>
	<g>
		<path d="M249.349,77.633l-29.115-29.115c-3.906-3.904-10.236-3.904-14.143,0c-3.905,3.905-3.905,10.237,0,14.143l29.116,29.115
			c1.953,1.952,4.512,2.929,7.071,2.929s5.118-0.977,7.071-2.929C253.254,87.871,253.254,81.539,249.349,77.633z"/>
	</g>
</g>
<g>
	<g>
		<path d="M391.54,48.537c-3.906-3.904-10.236-3.904-14.143,0l-29.115,29.115c-3.905,3.905-3.905,10.237,0,14.143
			c1.953,1.952,4.512,2.929,7.072,2.929s5.118-0.977,7.071-2.929L391.54,62.68C395.445,58.775,395.445,52.443,391.54,48.537z"/>
	</g>
</g>
<g>
</g>
<g>
</g>
<g>
</g>
<g>
</g>
<g>
</g>
<g>
</g>
<g>
</g>
<g>
</g>
<g>
</g>
<g>
</g>
<g>
</g>
<g>
</g>
<g>
</g>
<g>
</g>
<g>
</g>
</svg>
