<?xml version="1.0" encoding="iso-8859-1"?>
<!-- Generator: Adobe Illustrator 17.1.0, SVG Export Plug-In . SVG Version: 6.00 Build 0)  -->
<!DOCTYPE svg PUBLIC "-//W3C//DTD SVG 1.1//EN" "http://www.w3.org/Graphics/SVG/1.1/DTD/svg11.dtd">
<svg version="1.1" id="Capa_1" xmlns="http://www.w3.org/2000/svg" xmlns:xlink="http://www.w3.org/1999/xlink" x="0px" y="0px"
	 viewBox="0 0 490.348 490.348" style="enable-background:new 0 0 490.348 490.348;" xml:space="preserve">
<g>
	<path d="M455.922,475.348h-50.975V459.98c0-35.193-9.385-62.355-27.894-80.733c-1.477-1.466-2.977-2.84-4.492-4.129
		c1.695-1.941,3.157-4.249,4.376-6.71c1.112,1.109,2.173,2.032,3.094,2.723c5.26,3.95,14.629,5.749,21.108,5.749
		c9.103,0,13.493-3.301,15.573-6.07c4.449-5.923,2.599-14.276,0.263-20.241c-1.994-5.092-5.715-11.727-10.177-15.078
		c-0.979-0.736-2.152-1.482-3.455-2.202c4.408-4.083,8.709-9.851,7.788-16.331c-1.501-10.552-16.73-16.789-26.41-17.938
		c0.014-0.657-0.013-1.317-0.107-1.979c-1.669-11.734-20.314-18.135-29.427-18.135c-0.9,0-1.761,0.058-2.558,0.171
		c-4.569,0.649-10.746,2.896-15.924,6.61c11.709-20.4,14.487-38.757,14.607-39.593c0.052-0.356,0.078-0.716,0.078-1.076v-1.606
		c5.268-1.299,9.851-4.017,13.49-8.046c10.618-11.757,10.002-30.306,9.243-37.734c-0.576-5.655-3.134-10.4-7.398-13.722
		c-4.664-3.635-10.552-4.905-15.336-5.257v-7.803c33.022-2.048,54.927-18.41,67.739-32.281
		c14.726-15.944,20.772-31.883,21.023-32.554c0.016-0.042,0.025-0.084,0.04-0.126c0.051-0.144,0.096-0.289,0.138-0.436
		c0.026-0.091,0.053-0.182,0.075-0.273c0.032-0.131,0.058-0.263,0.083-0.396c0.02-0.105,0.042-0.21,0.058-0.315
		c0.017-0.111,0.024-0.223,0.035-0.335c0.047-0.467,0.049-0.932,0.009-1.391c-0.009-0.107-0.016-0.214-0.029-0.32
		c-0.015-0.11-0.036-0.218-0.056-0.327c-0.022-0.123-0.042-0.245-0.069-0.367c-0.023-0.098-0.05-0.194-0.076-0.291
		c-0.035-0.13-0.071-0.259-0.113-0.388c-0.03-0.091-0.064-0.18-0.097-0.269c-0.048-0.128-0.098-0.255-0.153-0.382
		c-0.039-0.091-0.082-0.18-0.125-0.27c-0.056-0.116-0.115-0.231-0.178-0.345c-0.054-0.098-0.109-0.193-0.167-0.289
		c-0.06-0.098-0.122-0.194-0.186-0.29c-0.071-0.105-0.144-0.21-0.221-0.312c-0.025-0.035-0.048-0.072-0.075-0.107
		c-0.078-0.101-0.166-0.208-0.263-0.322c0-0.001-0.001-0.001-0.002-0.002c-3.146-3.705-16.35-14.078-65.108-14.078
		c-10.862,0-29.876-2.108-35.172-16.23C321.544,22.932,304.34,0,287.368,0c-16.413,0-34.775,7.404-42.193,10.729
		C237.756,7.404,219.394,0,202.98,0c-16.971,0-34.175,22.931-51.134,68.157c-5.295,14.122-24.309,16.23-35.171,16.23
		c-22.246,0-59.934,2.07-66.167,15.679c-0.143,0.288-0.274,0.583-0.379,0.887c0,0.002-0.001,0.003-0.002,0.004
		c-0.003,0.008-0.004,0.016-0.006,0.024c-0.097,0.286-0.172,0.579-0.234,0.875c-0.016,0.077-0.03,0.153-0.044,0.229
		c-0.048,0.27-0.083,0.542-0.102,0.818c-0.002,0.034-0.007,0.068-0.009,0.103c-0.016,0.31-0.011,0.622,0.012,0.935
		c0.004,0.062,0.014,0.122,0.02,0.183c0.024,0.246,0.061,0.492,0.11,0.738c0.016,0.081,0.032,0.16,0.05,0.24
		c0.061,0.263,0.137,0.524,0.228,0.784c0.013,0.036,0.021,0.072,0.034,0.107c0.003,0.008,0.004,0.015,0.007,0.023
		c0.25,0.671,6.298,16.609,21.024,32.554c12.812,13.872,34.717,30.233,67.739,32.281v7.789c-4.815,0.335-10.792,1.591-15.514,5.271
		c-4.263,3.322-6.822,8.067-7.399,13.723c-0.757,7.429-1.374,25.978,9.245,37.734c3.679,4.074,8.326,6.804,13.667,8.085v1.567
		c0,0.36,0.026,0.72,0.078,1.076c0.131,0.907,3.387,22.474,17.82,44.884c9.258,14.375,24.462,30.956,48.519,40.897
		c-0.059,0.38-0.099,0.767-0.099,1.163v22.734h-37.518c-1.244,0.015-30.87,0.051-54.46,23.474
		c-18.509,18.377-27.894,45.54-27.894,80.733v15.368H34.426c-4.142,0-7.5,3.358-7.5,7.5c0,4.142,3.358,7.5,7.5,7.5h421.497
		c4.143,0,7.5-3.358,7.5-7.5C463.422,478.706,460.065,475.348,455.922,475.348z M389.947,459.98v15.368h-37.659v-96.09
		c4.76,2.64,9.623,6.093,14.196,10.634C382.053,405.35,389.947,428.931,389.947,459.98z M245.174,414.946
		c25.598,0,46.753-19.339,49.651-44.171h15.543v62.547H180.341v-62.547h15.182C198.421,395.607,219.576,414.946,245.174,414.946z
		 M326.631,322.854c0.73-2.098,2.025-4.658,4.042-4.945c0.154-0.022,0.299-0.033,0.442-0.033c3.682,0,8.064,8.105,8.761,13.003
		c0.47,3.308-2.797,12.092-5.271,14.69c-3.1-1.804-8.686-9.33-9.156-12.639C325.188,331.096,325.279,326.738,326.631,322.854z
		 M353.148,342.771c0.73-2.098,2.025-4.658,4.042-4.945c0.154-0.022,0.299-0.033,0.442-0.033c3.682,0,8.064,8.105,8.761,13.003
		c0.47,3.308-2.797,12.091-5.271,14.689c-3.101-1.805-8.686-9.33-9.156-12.639C351.705,351.012,351.795,346.654,353.148,342.771z
		 M310.598,335.043c0.803,5.642,5.977,14.973,12.761,20.741c-0.376-0.009-0.629-0.01-0.713-0.01h-37.571V333.04
		c0-0.396-0.04-0.783-0.1-1.163c11.885-4.911,21.604-11.443,29.518-18.528c-0.772,1.398-1.452,2.922-2.026,4.571
		C310.21,324.393,310.05,331.19,310.598,335.043z M172.841,448.322h145.028c4.143,0,7.5-3.358,7.5-7.5v-69.902
		c2.567,0.222,6.809,0.789,11.919,2.211v102.217H153.422V372.961c5.165-1.395,9.413-1.902,11.918-2.084v69.945
		C165.341,444.964,168.699,448.322,172.841,448.322z M401.139,361.881c-5.466,0-10.86-1.812-12.1-2.743
		c-1.482-1.113-4.501-4.259-6.29-7.962c-0.967-2-1.86-4.725-0.64-6.353c0.001,0,0.001,0,0.001-0.001
		c0.001-0.001,0.002-0.003,0.002-0.004c0.285-0.379,1.041-1.376,3.836-1.376c4.214,0,9.585,2.349,11.843,4.044
		c2.661,1.999,6.544,10.466,6.657,14.075C403.778,361.722,402.693,361.881,401.139,361.881z M383.309,328.273
		c-0.316,0.045-1.005,0.121-2.051,0.121c-5.12,0-12.477-1.857-12.972-5.344c-0.287-2.017,1.811-3.973,3.622-5.26
		c3.352-2.381,7.513-3.683,9.349-3.943c0.024-0.003,0.164-0.022,0.446-0.022c4.384,0,11.898,3.081,14.241,5.296
		C394.137,322.222,386.616,327.803,383.309,328.273z M354.742,293.93c0.025-0.003,0.165-0.022,0.446-0.022
		c4.383,0,11.897,3.081,14.24,5.296c-1.809,3.101-9.33,8.682-12.637,9.152c-0.316,0.045-1.005,0.121-2.051,0.121
		c-5.12,0-12.476-1.857-12.971-5.344C341.208,299.186,350.011,294.603,354.742,293.93z M357.507,195.742
		c0.724,0.564,1.492,1.412,1.696,3.414c0.892,8.739-0.072,20.2-5.453,26.158c-0.721,0.798-1.509,1.456-2.358,2.009v-33.6
		C353.701,193.991,356.023,194.586,357.507,195.742z M351.392,155.809v-10.444c25.465-5.275,44.292-11.99,57.797-18.241
		C397.409,140.28,378.81,153.819,351.392,155.809z M116.675,99.388c25.459,0,42.938-9.221,49.216-25.964
		C180.944,33.283,195.669,15,202.98,15c17.136,0,38.629,10.611,38.844,10.718c0.065,0.032,0.131,0.056,0.197,0.086
		c0.081,0.038,0.164,0.073,0.247,0.108c0.151,0.063,0.302,0.123,0.455,0.176c0.066,0.023,0.134,0.043,0.201,0.065
		c0.17,0.054,0.34,0.103,0.511,0.144c0.056,0.013,0.113,0.024,0.169,0.036c0.181,0.039,0.362,0.074,0.544,0.099
		c0.058,0.008,0.116,0.013,0.175,0.02c0.179,0.02,0.357,0.037,0.536,0.044c0.073,0.003,0.145,0.002,0.218,0.003
		c0.164,0.002,0.328,0.002,0.491-0.007c0.091-0.005,0.182-0.015,0.273-0.023c0.146-0.013,0.291-0.027,0.436-0.049
		c0.104-0.015,0.207-0.036,0.311-0.056c0.134-0.026,0.268-0.052,0.399-0.085c0.105-0.026,0.209-0.057,0.314-0.088
		c0.133-0.04,0.266-0.081,0.396-0.127c0.098-0.035,0.193-0.073,0.289-0.112c0.138-0.056,0.273-0.114,0.407-0.178
		c0.043-0.021,0.087-0.035,0.13-0.057C248.739,25.611,270.232,15,287.368,15c7.313,0,22.038,18.283,37.089,58.424
		c6.279,16.743,23.758,25.964,49.217,25.964c24.149,0,38.017,2.712,45.621,5.168c-6.06,3.932-15.658,9.21-29.672,14.461
		c-46.295,17.348-104.104,20.989-144.448,20.989c-40.344,0-98.153-3.642-144.449-20.989c-14.526-5.443-24.308-10.916-30.317-14.882
		C77.422,101.924,91.054,99.388,116.675,99.388z M82.611,128.796c-0.538-0.576-1.059-1.152-1.571-1.729
		c13.513,6.267,32.375,13.007,57.916,18.297v10.433C116.866,154.237,97.929,145.191,82.611,128.796z M136.42,225.314
		c-5.38-5.957-6.345-17.419-5.454-26.158c0.203-1.993,0.963-2.837,1.68-3.401c1.518-1.193,3.926-1.794,6.309-2.051v33.729
		C138.038,226.861,137.191,226.167,136.42,225.314z M169.764,283.32c-11.735-18.011-15.267-35.842-15.808-38.914v-96.246
		c24.729,4.124,54.824,6.846,91.218,6.846c36.394,0,66.489-2.722,91.218-6.845v96.244c-0.548,3.109-4.085,20.923-15.808,38.916
		c-0.869,1.333-1.766,2.628-2.679,3.899l-23.98-18.012c-0.722-0.542-1.511-0.925-2.327-1.173c-0.108-0.137-0.215-0.276-0.335-0.407
		c-2.792-3.061-7.512-3.301-10.57-0.51c-0.045,0.039-4.597,3.985-13.574,7.07c-3.917,1.346-6.002,5.613-4.655,9.53
		c1.068,3.11,3.978,5.064,7.092,5.064c0.809,0,1.631-0.132,2.438-0.409c6.104-2.098,10.689-4.539,13.81-6.506l22.427,16.845
		c-15.936,16.087-36.831,25.076-62.359,26.777h-1.394C211.71,323.305,186.572,309.118,169.764,283.32z M243.747,340.474
		c0.161,0.01,0.323,0.016,0.485,0.016h1.886c0.162,0,0.324-0.005,0.485-0.016c8.5-0.551,16.299-1.832,23.473-3.668v26.469
		c0,4.142,3.357,7.5,7.5,7.5h2.107c-2.785,16.533-17.194,29.171-34.508,29.171c-17.314,0-31.723-12.638-34.508-29.171h2.107
		c4.142,0,7.5-3.358,7.5-7.5v-26.469C227.448,338.642,235.247,339.923,243.747,340.474z M100.402,459.98
		c0-48.922,19.862-71.011,38.021-80.988v96.356h-38.021V459.98z"/>
	<circle cx="191.937" cy="182.672" r="8.951"/>
	<circle cx="298.411" cy="182.672" r="8.951"/>
	<path d="M265.109,217.399c0-4.142-3.358-7.5-7.5-7.5c-4.143,0-7.5,3.358-7.5,7.5c0,1.654-1.347,3-3.001,3h-3.868
		c-1.654,0-3-1.346-3-3c0-4.142-3.358-7.5-7.5-7.5s-7.5,3.358-7.5,7.5c0,9.925,8.075,18,18,18h3.868
		C257.034,235.399,265.109,227.325,265.109,217.399z"/>
</g>
<g>
</g>
<g>
</g>
<g>
</g>
<g>
</g>
<g>
</g>
<g>
</g>
<g>
</g>
<g>
</g>
<g>
</g>
<g>
</g>
<g>
</g>
<g>
</g>
<g>
</g>
<g>
</g>
<g>
</g>
</svg>
