<?xml version="1.0" encoding="iso-8859-1"?>
<!-- Generator: Adobe Illustrator 19.0.0, SVG Export Plug-In . SVG Version: 6.00 Build 0)  -->
<svg version="1.1" id="Layer_1" xmlns="http://www.w3.org/2000/svg" xmlns:xlink="http://www.w3.org/1999/xlink" x="0px" y="0px"
	 viewBox="0 0 512 512" style="enable-background:new 0 0 512 512;" xml:space="preserve">
<g transform="translate(1 1)">
	<g>
		<g>
			<path d="M267.909,343.026v-38.432c30.52-15.467,51.452-47.055,52.053-83.727v-0.022c18.382-0.458,33.28-15.598,33.28-32.405
				c0-19.096-14.659-34.658-33.28-34.574V152.6c0-5.689-0.634-11.378-1.698-17.067h103.245c4.267,0,7.68-2.56,8.533-6.827
				c0.853-3.413-0.853-7.68-4.267-9.387l-34.987-19.627c-21.303-12.091-42.608-26.907-65.745-46.009
				c10.907-12.622,27.058-20.551,45.265-20.551c5.12,0,8.533-3.413,8.533-8.533s-3.413-8.533-8.533-8.533
				c-23.404,0-44.224,10.285-58.267,26.6c-7.108-6.174-14.405-12.746-21.946-19.773C273.882,7.533,249.989-1,225.242-1
				c-24.747,0-48.64,8.533-64.853,24.747c-37.547,34.987-69.12,58.88-100.693,76.8l-34.987,19.627
				c-3.413,1.707-5.12,5.973-4.267,9.387s4.267,5.973,8.533,5.973h104.098c-1.058,5.659-1.689,11.318-1.696,16.977
				c-18.583,0.076-34.135,15.649-34.135,34.223c0,18.773,15.36,34.133,34.133,34.133c0,36.664,20.745,68.246,51.2,83.716v37.668
				C104.474,354.941,46.042,422.3,46.042,502.467c0,5.12,3.413,8.533,8.533,8.533h76.8h187.733h76.8c5.12,0,8.533-3.413,8.533-8.533
				C404.442,422.3,346.01,354.941,267.909,343.026z M336.175,186.733c0,9.099-7.222,16.572-16.213,17.023V169.71
				C328.954,170.161,336.175,177.635,336.175,186.733z M68.229,114.2c33.28-18.773,64.853-43.52,104.107-79.36
				c12.8-11.947,32.427-18.773,52.907-18.773c20.48,0,40.107,6.827,52.907,18.773c8.457,7.722,16.557,14.926,24.395,21.669
				c-5.766,10.801-9.035,23.169-9.035,36.357c0,5.12,3.413,8.533,8.533,8.533s8.533-3.413,8.533-8.533
				c0-8.977,1.939-17.448,5.403-25.047c23.143,19.032,44.34,34.005,66.277,46.38l6.827,4.267h-81.92H144.175H61.402L68.229,114.2z
				 M114.309,186.733c0-9.387,7.68-17.067,17.067-17.067V203.8C121.989,203.8,114.309,196.12,114.309,186.733z M148.442,220.867
				v-11.093v-47.787V152.6c0-5.973,0.853-11.093,1.707-17.067h150.187c0.853,5.973,1.707,11.093,1.707,17.067v11.093v47.787v9.387
				c0,42.667-34.133,76.8-76.8,76.8C182.575,297.667,148.442,263.533,148.442,220.867z M225.242,314.733
				c7.396,0,14.585-0.846,21.479-2.444c1.388-0.297,2.766-0.613,4.121-0.969v38.4v16.213c0,3.627-0.693,7.04-1.96,10.12
				c-0.317,0.77-0.669,1.519-1.056,2.246c-1.353,2.543-3.121,4.807-5.225,6.713c-0.601,0.544-1.23,1.06-1.884,1.544
				c-0.327,0.242-0.66,0.476-1,0.703c-1.358,0.905-2.815,1.682-4.355,2.315c-0.385,0.158-0.775,0.308-1.17,0.448
				c-1.581,0.561-3.241,0.974-4.966,1.226c-0.431,0.063-0.866,0.116-1.306,0.158c-0.878,0.085-1.771,0.128-2.678,0.128
				s-1.8-0.043-2.678-0.128c-0.439-0.042-0.874-0.095-1.306-0.158c-3.881-0.566-7.435-1.953-10.491-3.989
				c-0.34-0.226-0.673-0.461-1-0.703c-0.654-0.484-1.283-0.999-1.884-1.544c-2.104-1.906-3.873-4.17-5.225-6.713
				c-0.386-0.726-0.739-1.476-1.056-2.246c-1.267-3.08-1.96-6.493-1.96-10.12v-17.067V311.32c1.361,0.358,2.745,0.675,4.139,0.973
				C210.668,313.888,217.852,314.733,225.242,314.733z M225.242,408.6c23.893,0,42.667-18.773,42.667-42.667v-5.973
				c5.834,0.972,11.526,2.293,17.067,3.925v61.782H165.509V363.94c5.549-1.658,11.243-2.997,17.067-3.98v5.973
				C182.575,389.827,201.349,408.6,225.242,408.6z M148.442,370.258v55.409h-17.067c-5.12,0-8.533,3.413-8.533,8.533v59.733H63.109
				C66.598,438.807,100.333,391.676,148.442,370.258z M139.909,493.933v-51.2h170.667v51.2H139.909z M327.642,493.933V434.2
				c0-5.12-3.413-8.533-8.533-8.533h-17.067v-55.545c48.537,21.353,81.837,68.568,85.333,123.812H327.642z"/>
			<path d="M481.242,237.933c-5.12,0-8.533,3.413-8.533,8.533v68.267c0,14.218-6.649,26.621-17.067,34.336V255
				c0-5.12-3.413-8.533-8.533-8.533s-8.533,3.413-8.533,8.533v101.575c-2.751,0.54-5.603,0.825-8.533,0.825
				s-5.782-0.286-8.533-0.825V255c0-5.12-3.413-8.533-8.533-8.533s-8.533,3.413-8.533,8.533v94.07
				c-10.418-7.715-17.067-20.118-17.067-34.336v-68.267c0-5.12-3.413-8.533-8.533-8.533s-8.533,3.413-8.533,8.533v68.267
				c0,30.378,22.045,55.056,51.2,59.131v128.603c0,5.12,3.413,8.533,8.533,8.533s8.533-3.413,8.533-8.533V373.864
				c29.155-4.075,51.2-28.753,51.2-59.131v-68.267C489.775,241.347,486.362,237.933,481.242,237.933z"/>
			<path d="M276.442,459.8h-102.4c-5.12,0-8.533,3.413-8.533,8.533s3.413,8.533,8.533,8.533h102.4c5.12,0,8.533-3.413,8.533-8.533
				S281.562,459.8,276.442,459.8z"/>
		</g>
	</g>
</g>
<g>
</g>
<g>
</g>
<g>
</g>
<g>
</g>
<g>
</g>
<g>
</g>
<g>
</g>
<g>
</g>
<g>
</g>
<g>
</g>
<g>
</g>
<g>
</g>
<g>
</g>
<g>
</g>
<g>
</g>
</svg>
