<svg height="512" viewBox="0 0 60 60" width="512" xmlns="http://www.w3.org/2000/svg"><g id="Page-1" fill="none" fill-rule="evenodd"><g id="073---Blossom" fill="rgb(0,0,0)" fill-rule="nonzero"><path id="Shape" d="m54.475 15.44c-3.105-1.578-6.835-.678-10.074.412-1.7166929.6100915-3.355365 1.4207005-4.882 2.415.4490624-1.8294076.6909163-3.7035234.721-5.587 0-4.116 0-12.68-10.24-12.68s-10.24 8.564-10.24 12.68c.0301356 1.8838024.2719882 3.7582437.721 5.588-1.5258744-.995011-3.1643024-1.8056653-4.881-2.415-3.238-1.092-6.968-1.992-10.074-.413-2.165 1.1-3.779 3.3-4.8 6.541-3.14 10.012 4.739 12.663 8.525 13.937 1.7454548.5547776 3.5508941.8992143 5.378 1.026-1.418786 1.2178639-2.6898055 2.5979622-3.787 4.112-2.335 3.327-7.193 10.25 1.058 16.444 1.7952413 1.5034169 4.0314105 2.3810343 6.37 2.5.376731.0003047.7528986-.0291199 1.125-.088 3.473-.552 6.01-3.577 8.033-6.463 1.0392865-1.5304571 1.9021056-3.1735706 2.572-4.898.6700287 1.7226037 1.5324963 3.3640094 2.571 4.893 2.024 2.887 4.561 5.912 8.034 6.464.3719906.0602569.7481619.0910194 1.125.092 2.3386206-.1188214 4.574834-.9964562 6.37-2.5 8.25-6.194 3.392-13.117 1.057-16.445-1.0974911-1.5134948-2.3684843-2.8932289-3.787-4.111 1.8271059-.1267857 3.6325452-.4712224 5.378-1.026 3.786-1.274 11.665-3.925 8.524-13.939-1.018-3.238-2.632-5.438-4.797-6.539zm-24.475-13.44c6.862 0 8.24 4.086 8.24 10.68-.0703901 2.598519-.5218702 5.1726291-1.34 7.64-.5592038 1.828101-1.2301329 3.6201397-2.009 5.366-.6145642-.4774133-1.2953738-.8627899-2.021-1.144 2.0478121-4.9467655 2.5935109-10.3870594 1.569-15.642-.075383-.34922711-.3313503-.6317099-.6714814-.74103983-.340131-.10932993-.7127519-.02889719-.9775.211-.264748.23989718-.3814016.60281272-.3060186.95203983.9545979 4.9565709.407568 10.0852815-1.571 14.729-.3031289-.0341934-.6079487-.0512205-.913-.051-.032 0-.063 0-.095 0 .0059987-2.7824767-.3811609-5.5518461-1.15-8.226-.1549159-.5301933-.7103066-.8344158-1.2405-.6795-.5301933.1549159-.8344158.7103067-.6795 1.2405.7375726 2.5676188 1.0986681 5.2286767 1.072 7.9-1.5369152-1.5125875-3.171787-2.9223053-4.894-4.22-.7641339-2.3730274-1.1860455-4.8428771-1.253-7.335 0-6.594 1.378-10.68 8.24-10.68zm0 36c-.4811564-.0017191-.9603261-.0618252-1.427-.179h-.011c-2.5757018-.639404-4.4253676-2.8949552-4.548-5.546 0-.012 0-.023 0-.036 0-.079-.012-.156-.012-.236.0044045-2.5457072 1.613236-4.812096 4.015-5.656 2.2546907-.8019511 4.770326-.1874119 6.4013185 1.5637646 1.6309926 1.7511765 2.0654233 4.3040864 1.105458 6.4961682s-3.1307379 3.6041106-5.5237765 3.5930672zm-27.366-15.42c.864-2.744 2.106-4.5 3.8-5.357 2.438-1.241 5.54-.482 8.529.525 2.3721328.8735752 4.5940072 2.1106863 6.586 3.667 1.5392729 1.1419116 3.0067202 2.3775863 4.394 3.7-.8186956.4829923-1.5455492 1.1069286-2.147 1.843-4.0719844-3.4721747-9.0752577-5.67004-14.387-6.32-.35547926-.0357266-.70301554.1209067-.91169528.4108975s-.24679952.6692826-.1.995c.14679953.3257173.45621602.5483759.81169528.5841025 5.0098317.6258923 9.7191864 2.7316277 13.526 6.048-.1428313.3048397-.2660813.6184759-.369.939-2.6428509-.8637989-5.3942272-1.3509201-8.173-1.447-.5498671-.0102518-1.007271.4205072-1.03.97-.0168253.5520012.4169999 1.0131364.969 1.03 2.6865719.093245 5.345198.5776728 7.892 1.438 0 .048-.006.095-.007.143-1.755925.9905956-3.4451955 2.0949516-5.057 3.306-2.3944431.0121329-4.776984-.3374773-7.067-1.037-6.06-2.034-9.385-4.658-7.259-11.438zm23.157 29.72c-1.783 2.544-3.975 5.2-6.71 5.637-1.817.293-3.774-.375-5.98-2.033-5.581-4.189-4.376-8.346-.622-13.695 1.5209918-2.0419132 3.341501-3.8425316 5.4-5.341 1.3968566-1.0637283 2.8550386-2.04442 4.367-2.937.2117318.8587419.5656147 1.6760187 1.047 2.418-4.5616442 2.7992033-8.1989841 6.8785605-10.459 11.73-.2228469.5056167.0063833 1.0961531.512 1.319s1.0961531-.0063833 1.319-.512c2.1423609-4.5742107 5.6018124-8.4045042 9.935-11 .2472193.2277096.5083924.4397875.782.635-1.6416088 2.2483894-2.9572808 4.7174627-3.908 7.334-.1704977.5151604.1009714 1.0722904.6117535 1.255488s1.0744612-.0743973 1.2702465-.580488c.9190831-2.5255628 2.201579-4.9035872 3.807-7.059.1.037.193.074.291.107.3771697 2.0412062.8780939 4.0575928 1.5 6.038-.7318877 2.3667776-1.7968999 4.6173441-3.163 6.684zm21.73-10.1c3.754 5.35 4.959 9.507-.622 13.7-2.206 1.657-4.164 2.324-5.98 2.033-2.735-.435-4.927-3.093-6.711-5.638-1.418836-2.153662-2.5160456-4.502708-3.257-6.973-.562234-1.7537435-1.0246418-3.5379366-1.385-5.344.145.008.288.022.434.022.6955061-.0026787 1.3876871-.0961349 2.059-.278 1.2521554 5.2033289 4.0079809 9.9230801 7.924 13.571.2643826.2499179.6436356.3365341.9903014.2261712.3466657-.1103628.606044-.4002905.6772858-.7570562.0712418-.3567656-.0568941-.7240753-.3345872-.959115-3.6857975-3.4502866-6.2579124-7.9221523-7.387-12.843.2925151-.1665195.5740889-.3515633.843-.554 1.6319171 2.2567122 3.574056 4.2719043 5.769 5.986.4368572.3379982 1.0650017.2578572 1.403-.179.3379982-.4368572.2578572-1.0650017-.179-1.403-2.1176121-1.6540997-3.9828772-3.6079624-5.537-5.8.085-.1.164-.216.243-.325 1.9588899.2496411 3.931281.3785512 5.906.386 1.9554464 1.4498594 3.6884364 3.1777959 5.144 5.129zm2.59-8.183c-2.3929099.7311893-4.8851302 1.0851001-7.387 1.049-1.7496308.0134964-3.4984801-.0786713-5.237-.276.2834502-.7589884.4490349-1.5568978.491-2.366.6.04 1.263.067 1.982.067 4.6808232.0582466 9.2943602-1.1179018 13.376-3.41.3289701-.168333.5382924-.5043668.5443415-.873854.006049-.3694871-.1921614-.7121928-.5154449-.8912042-.3232836-.1790113-.7189379-.1651454-1.0288966.0360582-4.4182976 2.4380116-9.463265 3.5030603-14.49 3.059-.0689395-.3306939-.1587866-.6566818-.269-.976 2.6487714-.8538027 5.1636258-2.0775639 7.47-3.635.4564633-.3109363.5744363-.9330367.2635-1.3895s-.9330367-.5744363-1.3895-.2635c-2.2274264 1.5029644-4.6620141 2.6732644-7.227 3.474-.092-.141-.193-.276-.294-.411.9020393-1.941082 1.6763536-3.9389999 2.318-5.981 1.9212496-1.4736857 4.0539405-2.6489245 6.326-3.486 2.988-1 6.09-1.765 8.529-.524 1.692.86 2.934 2.613 3.8 5.356 2.119 6.785-1.206 9.409-7.262 11.446z"/><path id="Shape" d="m30 28c-2.209139 0-4 1.790861-4 4 0 .5522847.4477153 1 1 1s1-.4477153 1-1c0-1.1045695.8954305-2 2-2 .5522847 0 1-.4477153 1-1s-.4477153-1-1-1z"/></g></g></svg>