<svg height="512pt" viewBox="0 -3 512 512" width="512pt" xmlns="http://www.w3.org/2000/svg"><path d="m508.171875 452.746094c-13.753906-53.222656-61.816406-90.394532-116.875-90.394532-4.320313 0-8.617187.226563-12.871094.679688l28.203125-57.679688.042969.023438c1.414063.691406 2.90625 1.015625 4.382813 1.015625 3.699218 0 7.257812-2.0625 8.992187-5.613281 2.421875-4.960938.363281-10.949219-4.597656-13.371094l-37.648438-18.394531 10.789063-22.066407c1.167968-2.382812 1.335937-5.132812.476562-7.640624-.863281-2.507813-2.683594-4.574219-5.070312-5.738282l-2.394532-1.167968 68.824219-140.785157c1.667969-.019531 3.347657-.105469 5.03125-.269531 15.882813-1.539062 30.105469-11.398438 37.113281-25.730469l1.214844-2.488281c.613282.117188 1.230469.171875 1.839844.171875 3.703125 0 7.261719-2.0625 8.992188-5.613281 2.425781-4.960938.367187-10.949219-4.59375-13.375l-88.625-43.292969c-4.964844-2.421875-10.953126-.363281-13.375 4.597656-2.019532 4.132813-.929688 8.976563 2.359374 11.882813l-1.210937 2.480468c-7.011719 14.335938-6.058594 31.609376 2.488281 45.085938.898438 1.414062 1.847656 2.777344 2.847656 4.09375l-68.835937 140.804688-2.398437-1.175782c-4.960938-2.421875-10.949219-.367187-13.375 4.59375l-10.792969 22.074219-37.660157-18.394531c-4.964843-2.421875-10.949218-.363282-13.375 4.597656-2.421874 4.960938-.367187 10.949219 4.597657 13.375l.03125.015625-38.867188 79.484375c-20.476562 2.796875-40.128906 9.925781-57.695312 21.019531-20.53125 12.96875-37.457031 30.816407-49.285157 51.902344-2.863281-.230469-5.714843-.34375-8.539062-.34375-42.640625 0-81.457031 25.140625-98.894531 64.046875-6.25 13.949219-9.417969 28.828125-9.417969 44.21875 0 2.652344 1.054688 5.195312 2.929688 7.070312s4.417968 2.929688 7.070312 2.929688h491.292969c5.09375 0 9.375-3.828125 9.9375-8.890625.511719-4.582031.769531-9.117187.769531-13.488281 0-10.242188-1.289062-20.417969-3.828125-30.25zm-33.570313-395.921875c-3.980468 8.136719-12.054687 13.734375-21.074218 14.609375-14.023438 1.363281-27.429688-5.1875-34.976563-17.082032-4.851562-7.648437-5.394531-17.453124-1.414062-25.589843l1.058593-2.164063 57.460938 28.070313zm-54.671874 26.328125c3.160156 1.949218 6.503906 3.585937 9.980468 4.882812l-66.277344 135.582032-9.988281-4.878907zm-86.453126 147.992187 32.753907 16-6.402344 13.089844-32.75-16zm55.183594 65.429688-33.601562 68.710937c-26.820313-31.996094-66.457032-51.152344-108.320313-52.0625l33.9375-69.398437zm103.308594 188.800781h-471.414062c.773437-6.890625 2.351562-13.621094 4.71875-20.128906h77.734374c5.519532 0 10-4.476563 10-10 0-5.523438-4.480468-10-10-10h-67.398437c18.640625-26.945313 51.371094-42.132813 85.464844-37.203125 4.269531.613281 8.449219-1.574219 10.375-5.433594 21.375-42.816406 64.351562-69.417969 112.164062-69.417969 39.984375 0 77.910157 19.359375 101.453125 51.78125 2.628906 3.617188 7.335938 5.050782 11.535156 3.511719 2.210938-.808594 4.4375-1.539063 6.691407-2.191406.074219-.019531.152343-.042969.226562-.0625 8.988281-2.574219 18.300781-3.878907 27.777344-3.878907 41.492187 0 78.21875 25.292969 93.394531 62.898438h-252.050781c-5.523437 0-10 4.476562-10 10 0 5.519531 4.476563 10 10 10h257.796875c1.039062 5.832031 1.5625 11.773438 1.5625 17.746094 0 .785156-.011719 1.578125-.03125 2.378906zm0 0"/><path d="m321.214844 412.273438c-3.097656 0-6.144532-1.429688-8.101563-4.125-16.140625-22.226563-42.121093-35.496094-69.5-35.496094-5.523437 0-10-4.476563-10-10 0-5.523438 4.476563-10 10-10 33.765625 0 65.792969 16.351562 85.683594 43.742187 3.246094 4.472657 2.253906 10.722657-2.214844 13.96875-1.777343 1.289063-3.832031 1.910157-5.867187 1.910157zm0 0"/><path d="m198.75 465.25c-.648438 0-1.308594-.070312-1.949219-.203125-.640625-.128906-1.269531-.320313-1.871093-.570313-.609376-.25-1.191407-.558593-1.730469-.917968-.550781-.359375-1.058594-.78125-1.519531-1.238282-1.859376-1.863281-2.929688-4.441406-2.929688-7.070312 0-.652344.070312-1.3125.199219-1.960938.128906-.632812.320312-1.261718.570312-1.871093.25-.601563.558594-1.179688.921875-1.71875.359375-.550781.777344-1.0625 1.238282-1.523438.460937-.457031.96875-.878906 1.519531-1.25.539062-.359375 1.121093-.667969 1.730469-.917969.601562-.242187 1.230468-.441406 1.871093-.570312 3.25-.648438 6.699219.421875 9.019531 2.738281.460938.460938.878907.972657 1.238282 1.523438.363281.539062.671875 1.117187.921875 1.71875.25.609375.449219 1.238281.578125 1.871093.132812.648438.191406 1.308594.191406 1.960938 0 2.628906-1.070312 5.207031-2.929688 7.070312-1.859374 1.859376-4.441406 2.929688-7.070312 2.929688zm0 0"/></svg>