<svg height="512" viewBox="0 0 60 53" width="512" xmlns="http://www.w3.org/2000/svg"><g id="Page-1" fill="none" fill-rule="evenodd"><g id="002---Lawn-Mower" fill="rgb(0,0,0)" fill-rule="nonzero"><path id="Shape" d="m54 41c-2.0161225.0059059-3.8944967 1.0239848-5 2.71v-4.71c1.1045695 0 2-.8954305 2-2v-4c.0018327-.1170907-.0220631-.233156-.07-.34 0 0 0 0 0-.06-.0199704-.0614334-.0504195-.1189484-.09-.17-2.0878518-2.7825091-5.3612888-4.4229305-8.84-4.43h-8c-1.6568542 0-3 1.3431458-3 3v3.68c-4.41-3.33-12-9.32-18-14.14v-5.54c0-.5522847-.4477153-1-1-1s-1 .4477153-1 1v3.94l-5.13-4.11c.08367025-.2688251.12746948-.5484663.13-.83v-5c-.00000002-1.65685423-1.34314577-2.99999996-3-2.99999996s-2.99999998 1.34314573-3 2.99999996v5c0 1.6568542 1.34314575 3 3 3 .61172415-.0014483 1.20838651-.189868 1.71-.54 5.5 4.43 20.4 16.36 26.31 20.73.0975291 1.022142.953231 1.8043746 1.98 1.81v1.13l-2.09-.5c-1.5001869-1.6567612-3.6250426-2.610408-5.86-2.63l-19.21-14.84-4.08-3.16c-.43660098-.3358001-1.06254326-.2553218-1.4.18-.16764184.2109453-.24306325.4806161-.20917913.7479241.03388411.267308.17420614.509631.38917913.6720759l3 2.27c-2.17 1.92-2.44 5.13-2.54 6.98-.48 5.15.34 9.52 2.41 12.86 3.59 5.79 10.24 7.18 15.38 7.29 2.4093517 3.035949 6.6619065 3.8822286 10.05 2h21.89c.9676473.6482736 2.1052746.9961719 3.27 1 3.3137085 0 6-2.6862915 6-6s-2.6862915-6-6-6zm-52-27v-5c0-.55228475.44771525-1 1-1s1 .44771525 1 1v5c0 .5522847-.44771525 1-1 1s-1-.4477153-1-1zm45.77 31.67.37.09c-.0866347.4078369-.1335207.8231133-.14 1.24.00187 1.0537794.2812395 2.0884811.81 3h-17.59c1.8398494-2.2430103 2.3042175-5.3132121 1.21-8 3.68.93 10.84 2.63 15.34 3.67zm1.23-8.67h-16v-3h16zm-16-6c0-.5522847.4477153-1 1-1h8c2.0565223.001567 4.0504828.7073937 5.65 2h-14.65zm2 8h12v4.44c-3.67-.85-8.52-2-12-2.83zm-29.89 2.66c-1.83-3-2.57-6.89-2.17-11.65.19-2.23.54-4.67 2.18-5.87l17.24 13.31c-3.2094999 1.1219876-5.3592148 4.1500375-5.36 7.55.0032123 1.0285086.2034907 2.0468732.59 3-4.42-.34-9.59-1.75-12.48-6.34zm15 6.79-.08-.1c-1.2137274-1.7985829-1.361829-4.1123283-.3873201-6.0509791.974509-1.9386508 2.9197749-3.2001151 5.0873201-3.2990209.0897273.009908.1802727.009908.27 0 2.8458558-.0042288 5.3031868 1.9913018 5.8830465 4.7774598.5798597 2.7861579-.8772908 5.5963768-3.4885348 6.7278884-2.6112439 1.1315116-5.6581396.2729988-7.2945117-2.0553482zm33.89 2.55c-2.209139 0-4-1.790861-4-4s1.790861-4 4-4 4 1.790861 4 4-1.790861 4-4 4z"/><path id="Shape" d="m13.29 43.15c-1.6858964-.5146092-3.1797159-1.5209352-4.29-2.89-2-2.6-2.26-6.45-2.12-9.21.03037565-.5522847-.39271526-1.0246243-.945-1.055-.55228474-.0303756-1.02462433.3927153-1.055.945-.16 3.11.15 7.45 2.53 10.54 1.36083196 1.6649415 3.1841138 2.8897415 5.24 3.52.1019407.0399583.2105081.0603147.32.06.5522847.0883655 1.0716344-.2877153 1.16-.84.0883655-.5522847-.2877153-1.0716344-.84-1.16z"/><path id="Shape" d="m25 42c-1.6568542 0-3 1.3431458-3 3s1.3431458 3 3 3 3-1.3431458 3-3-1.3431458-3-3-3zm0 4c-.5522847 0-1-.4477153-1-1s.4477153-1 1-1 1 .4477153 1 1-.4477153 1-1 1z"/><circle id="Oval" cx="54" cy="47" r="1"/><path id="Shape" d="m22 2h1c.5522847 0 1-.44771525 1-1s-.4477153-1-1-1h-1c-.5522847 0-1 .44771525-1 1s.4477153 1 1 1z"/><path id="Shape" d="m38.25 9.54c.1886474.23873743.475728.37859723.78.38.2302147-.00186096.4527364-.08309907.63-.23.4225888-.34936755.485039-.97386967.14-1.4-.45-.56-.93-1.1-1.41-1.61-.1877666-.18931265-.4433625-.29579832-.71-.29579832s-.5222334.10648567-.71.29579832c-.1893127.1877666-.2957983.44336246-.2957983.71s.1064856.5222334.2957983.71c.43.44.86.9 1.28 1.44z"/><path id="Shape" d="m42.78 18.25c.19.63.36 1.28.51 1.92.1088118.4611676.5263385.7826631 1 .77h.23c.5346344-.1285208.8652036-.664579.74-1.2-.16-.68-.34-1.37-.55-2-.0857553-.3621282-.3655069-.6466822-.7261231-.7385884-.3606162-.0919061-.7424386.02404-.9910584.3009497-.2486197.2769098-.3229064.6689728-.1928185 1.0176387z"/><path id="Shape" d="m41.36 14.56c.1654027.3472838.5153406.5689111.9.57.1480155.0000643.2944344-.0305815.43-.09.4997404-.2347915.7146165-.8301775.48-1.33-.3-.65-.63-1.28-1-1.89-.2761424-.4804877-.8895123-.6461424-1.37-.37s-.6461424.8895123-.37 1.37c.34.55.65 1.18.93 1.74z"/><path id="Shape" d="m26.85 2.5c.64.13 1.27.3 1.89.49.0858613.01464222.1732677.018004.26.01.4352629-.00171566.8194235-.28478139.95-.7.0815936-.25327301.0588801-.52862124-.0631131-.76510037-.1219932-.23647914-.3332051-.41458614-.5868869-.49489963-.68-.21-1.37-.39-2.08-.54-.5380725-.11106993-1.0649782.2327584-1.18.77-.0679868.27152375-.0190631.5591129.1348826.79288222.1539456.23376931.3988199.39231787.6751174.43711778z"/><path id="Shape" d="m32.32 4.52c.57.32 1.12.66 1.66 1 .1672045.11671068.366092.17951724.57.18.4362819-.00102942.8215408-.28478316.9519337-.70112517.1303928-.41634202-.0241803-.86916403-.3819337-1.11887483-.59-.41-1.21-.79-1.83-1.14-.23204-.12874539-.5057375-.15998325-.7608202-.08683453s-.4706317.2446852-.5991798.47683453c-.1384524.23473056-.1751085.51579915-.1014887.77818749.0736197.26238833.2511374.48336501.4914887.61181251z"/><path id="Shape" d="m43.94 24.09v.47.5c.0154441.2653913.1359254.5137106.3348239.6900922.1988984.1763817.4598421.2663072.7251761.2499078h.06c.2672446-.0153732.517169-.1372501.6938406-.338355s.2653393-.4646466.2461594-.731645v-.49c0-.15 0-.33 0-.52-.0188187-.2812871-.1554944-.5415637-.3763748-.7167448-.2208805-.1751811-.5054438-.2489906-.7836252-.2032552-.5493903.0527177-.9521958.5405599-.9 1.09z"/><path id="Shape" d="m20 6h1c.5522847.0138071 1.0111929-.42271526 1.025-.975s-.4227153-1.01119287-.975-1.025h-1.05c-.5522847 0-1 .44771525-1 1s.4477153 1 1 1z"/><path id="Shape" d="m29.74 7.62c-.3052198.45371643-.1893989 1.0684581.26 1.38.5232967.37301115 1.0210731.78058645 1.49 1.22.1859478.1690269.4287168.2618503.68.26.2771651-.0008916.5415282-.1167768.73-.32.3877236-.39003745.3877236-1.01996255 0-1.41-.5293635-.4929994-1.0905743-.95065351-1.68-1.37-.2217964-.18186484-.5110072-.25973597-.7941336-.21382359-.2831263.04591238-.5329079.21118768-.6858664.45382359z"/><path id="Shape" d="m38.44 20.94c.5282319-.1461291.8404156-.6902208.7-1.22-.18-.69-.4-1.37-.63-2-.1877768-.5219091-.7630909-.7927768-1.285-.605-.5219091.1877769-.7927768.7630909-.605 1.285.22.61.42 1.24.59 1.87.1206641.4492179.5351312.7559235 1 .74.0796894-.0119066.1571888-.0354934.23-.07z"/><path id="Shape" d="m24.78 6.59c.6215301.15892451 1.2326862.35596391 1.83.59.1173493.04805099.2432077.07186202.37.07.4787354-.00358514.88777-.3459746.9755562-.8166061s-.1703064-.93745919-.6155562-1.1133939c-.6705527-.26069326-1.3549166-.4843634-2.05-.67-.3465476-.09110273-.7153736.00959584-.9675446.26416352-.2521711.25456768-.3493766.62432959-.255.97.0943765.34567041.365997.61473375.7125446.70583648z"/><path id="Shape" d="m34.22 11.76c-.4421183.3245963-.5402702.9447379-.22 1.39.37.52.71 1.08 1 1.65.1767741.3144869.5092359.5093783.87.51.1705631-.000374.3385655-.0415175.49-.12.2331419-.1302578.4044947-.3483599.4758754-.6057061.0713807-.2573461.036858-.5325525-.0958754-.7642939-.35-.63-.74-1.24-1.13-1.81-.3152372-.4521954-.9369551-.5640152-1.39-.25z"/><path id="Shape" d="m39 26h.05c.5326668-.0266663.9506671-.4666665.95-1 0-.33 0-.68-.08-1-.025234-.2657542-.1556769-.5103875-.3622845-.6794301-.2066075-.1690425-.4722269-.2484602-.7377155-.2205699-.5453664.0578161-.9424141.544088-.89 1.09 0 .33.05.65.07.95.0702496.4970163.498068.8649401 1 .86z"/><path id="Shape" d="m33 26h.06c.2672446-.0153732.517169-.1372501.6938406-.338355s.2653393-.4646466.2461594-.731645c0 0 0-.39-.12-1.06-.0773199-.5522847-.5877153-.9373198-1.14-.8599999-.5522847.0773198-.9373198.5877152-.86 1.1399999.08.55.1.89.1.91.0321224.5365383.4826286.9517107 1.02.94z"/><path id="Shape" d="m23.31 8.85c-.5219091-.18225397-1.092746.09309091-1.275.615s.0930909 1.092746.615 1.275c.5903501.2007647 1.1624372.4516801 1.71.75.4861466.25818 1.089538.0749278 1.35-.41.2597488-.4835179.0812266-1.08603034-.4-1.35-.6423227-.34580959-1.3110913-.64006775-2-.88z"/><path id="Shape" d="m28.76 12.38c-.2465133-.2590176-.6124851-.3668464-.9600575-.2828684-.3475725.0839779-.6239409.3470044-.7250001.69-.1010591.3429955-.0114557.7138509.2350576.9728684.4339929.4541638.8350121.9387286 1.2 1.45.1866758.2621956.4881426.4185117.81.42.2112046-.0031336.416657-.0692962.59-.19.2152922-.1561269.3595264-.3915809.400811-.6543011.0412846-.2627203-.0237813-.5310643-.180811-.7456989-.4186481-.5836423-.8763632-1.1382459-1.37-1.66z"/><path id="Shape" d="m31 20.37c.1393947.4293385.5491389.712062 1 .69.0990821.0191616.2009179.0191616.3 0 .5232343-.1673923.8134633-.725525.65-1.25-.22-.69-.47-1.35-.73-2-.2153911-.5108634-.8041366-.750391-1.315-.535-.5108634.2153911-.750391.8041366-.535 1.315.24.54.46 1.15.63 1.78z"/><path id="Shape" d="m18 10h.94.06c.5522847.0165685 1.0134314-.41771526 1.03-.97.0165685-.55228474-.4177153-1.01343144-.97-1.03-.35 0-.7 0-1.06 0-.5522847 0-1 .44771525-1 1s.4477153 1 1 1z"/></g></g></svg>