<?xml version="1.0" encoding="iso-8859-1"?>
<!-- Generator: Adobe Illustrator 19.0.0, SVG Export Plug-In . SVG Version: 6.00 Build 0)  -->
<svg version="1.1" id="Capa_1" xmlns="http://www.w3.org/2000/svg" xmlns:xlink="http://www.w3.org/1999/xlink" x="0px" y="0px"
	 viewBox="0 0 203.092 203.092" style="enable-background:new 0 0 203.092 203.092;" xml:space="preserve">
<g>
	<g>
		<path d="M73.938,7.73C61.781-3.055,43.249-2.49,31.748,9.02c-10.516,10.525-12.03,27.046-3.596,39.281
			c0.666,0.963,1.734,1.48,2.821,1.48c0.671,0,1.347-0.196,1.939-0.606c1.555-1.073,1.947-3.208,0.874-4.765
			c-6.557-9.513-5.379-22.361,2.801-30.548c8.943-8.953,23.357-9.392,32.812-1.005c1.411,1.253,3.577,1.125,4.832-0.292
			C75.484,11.15,75.353,8.986,73.938,7.73z"/>
	</g>
</g>
<g>
	<g>
		<path d="M172.902,92.629c-0.449-1.248-1.577-2.125-2.896-2.251l-66.499-6.339c-1.884-0.166-3.552,1.203-3.731,3.086
			s1.201,3.555,3.082,3.734l59.264,5.649l-10.662,10.67l-62.377-5.946c-1.889-0.183-3.55,1.201-3.731,3.086
			c-0.179,1.882,1.201,3.555,3.082,3.734l63.981,6.098c0.109,0.01,0.217,0.015,0.324,0.015c0.905,0,1.775-0.358,2.422-1.002
			l16.939-16.954C173.039,95.271,173.351,93.877,172.902,92.629z"/>
	</g>
</g>
<g>
	<g>
		<path d="M89.086,101.233l-0.451-0.043c-1.867-0.176-3.552,1.201-3.734,3.082c-0.179,1.882,1.2,3.555,3.081,3.738l0.451,0.043
			c0.111,0.01,0.222,0.015,0.331,0.015c1.743,0,3.232-1.326,3.403-3.098C92.346,103.088,90.967,101.415,89.086,101.233z"/>
	</g>
</g>
<g>
	<g>
		<path d="M125.867,35.403L99.76,9.276C91.559,1.069,78.314,0.638,69.6,8.303L2.869,66.997c-0.71,0.623-1.13,1.514-1.161,2.461
			c-0.031,0.947,0.331,1.864,1,2.533l60.498,60.549c0.643,0.643,1.514,1.004,2.42,1.004c0.038,0,0.073,0,0.111-0.003
			c0.945-0.031,1.836-0.452,2.459-1.162l58.641-66.787C134.492,56.871,134.067,43.612,125.867,35.403z M121.697,61.068
			l-56.231,64.043L10.131,69.728l63.986-56.281c6.009-5.282,15.145-4.989,20.803,0.672l26.107,26.127
			C126.683,45.908,126.976,55.054,121.697,61.068z"/>
	</g>
</g>
<g>
	<g>
		<path d="M182.992,87.733c-3.338-3.338-8.767-3.338-12.1,0l-24.199,24.219c-1.616,1.616-2.507,3.767-2.507,6.055
			c0,2.285,0.891,4.436,2.507,6.054c1.615,1.618,3.765,2.509,6.048,2.509c2.287,0,4.436-0.891,6.05-2.509l24.201-24.219
			c1.616-1.616,2.507-3.767,2.507-6.055C185.499,91.501,184.609,89.351,182.992,87.733z M178.15,94.997l-24.201,24.221
			c-0.435,0.437-0.942,0.502-1.208,0.502c-0.265,0-0.773-0.067-1.21-0.502c-0.437-0.435-0.502-0.945-0.502-1.21
			s0.065-0.773,0.502-1.21l24.199-24.221c0.437-0.437,0.945-0.502,1.21-0.502c0.265,0,0.775,0.065,1.21,0.502
			c0.437,0.435,0.502,0.945,0.502,1.21S178.587,94.56,178.15,94.997z"/>
	</g>
</g>
<g>
	<g>
		<path d="M189.42,137.45c-1.294-1.742-4.204-1.742-5.497,0c-1.997,2.695-11.964,16.495-11.964,23.514
			c0,8.119,6.6,14.725,14.713,14.725c8.115,0,14.715-6.605,14.713-14.725C201.385,153.945,191.418,140.145,189.42,137.45z
			 M186.672,168.841c-4.34,0-7.869-3.533-7.869-7.876c0-2.587,3.715-9.378,7.869-15.541c4.156,6.163,7.871,12.954,7.871,15.541
			C194.543,165.308,191.012,168.841,186.672,168.841z"/>
	</g>
</g>
<g>
	<g>
		<path d="M131.241,127.176c-1.294-1.743-4.203-1.743-5.497,0c-1.997,2.695-11.964,16.495-11.964,23.514
			c0,8.119,6.6,14.725,14.713,14.725c8.115,0,14.715-6.607,14.713-14.725C143.207,143.671,133.24,129.871,131.241,127.176z
			 M128.493,158.565c-4.34,0-7.869-3.533-7.869-7.876c0-2.587,3.715-9.378,7.869-15.541c4.156,6.164,7.871,12.954,7.871,15.541
			C136.364,155.032,132.833,158.565,128.493,158.565z"/>
	</g>
</g>
<g>
	<g>
		<path d="M158.619,164.852c-1.294-1.742-4.204-1.742-5.497,0c-1.997,2.695-11.964,16.495-11.964,23.514
			c0,8.119,6.6,14.725,14.713,14.725c8.115,0,14.715-6.607,14.713-14.725C170.585,181.347,160.618,167.547,158.619,164.852z
			 M155.872,196.243c-4.34,0-7.869-3.533-7.869-7.876c0-2.587,3.715-9.378,7.869-15.541c4.156,6.163,7.871,12.954,7.871,15.541
			C163.743,192.71,160.212,196.243,155.872,196.243z"/>
	</g>
</g>
<g>
</g>
<g>
</g>
<g>
</g>
<g>
</g>
<g>
</g>
<g>
</g>
<g>
</g>
<g>
</g>
<g>
</g>
<g>
</g>
<g>
</g>
<g>
</g>
<g>
</g>
<g>
</g>
<g>
</g>
</svg>
