<svg height="512" viewBox="0 0 54 60" width="512" xmlns="http://www.w3.org/2000/svg"><g id="002---Tropical-Leaf" transform="translate(-1)"><path id="Shape" d="m2.164 19.562c.68851815.3288005 1.50577725.2239535 2.089-.268 3.67842985-3.0527028 8.2076484-4.8986771 12.972-5.287.2714008-.0174314.529991.1174517.671.35-.1010183.5575219-.4893659 1.0200396-1.021 1.216-2.782.78-9.836 3.161-15.254 8.415-.40304234.379844-.62524812.9133561-.611 1.467.0179773 1.6480364.1681255 3.2919752.449 4.916.14472633.7356073.69078585 1.3273418 1.41242525 1.5305669.72163939.2032252 1.49624397-.0165892 2.00357475-.5685669 3.323026-3.6457368 7.722797-6.1358691 12.559-7.108.3220222-.0533182.6381531.1230015.762.425.0855252.1707218.0956792.3694502.028.548-.0673014.1756863-.2056685.3147797-.381.383l-.26.1c-5.656003 1.9549891-10.58578511 5.5799724-14.138 10.396-.33245662.4530152-.45778243 1.0255181-.345 1.576.50600461 2.5864741 1.45314749 5.0666353 2.8 7.332.42026094.6353941 1.16568784.9759854 1.92113535.8777815.75544751-.098204 1.38902142-.6180576 1.63286465-1.3397815 1.9219826-5.9854589 6.6512575-10.651612 12.662-12.493.324625-.1072241.6775553.0499707.815.363.006.024.024.088.031.112.1124369.3277648-.0245454.6891289-.326.86-5.7402142 3.16556-9.9051807 8.5759953-11.497 14.935-.1565569.6407715.0112429 1.3175764.449 1.811l.123.141c2.1027451 2.5026714 4.8654199 4.3652423 7.974 5.376 3.59 1.2 5.229 1.74 6.78 3.647.3772311.4595096.9404814.7258528 1.535.7258528s1.1577689-.2663432 1.535-.7258528c1.551-1.907 3.19-2.452 6.781-3.647 3.1081939-1.010973 5.8704911-2.8735229 7.973-5.376l.122-.14c.4380965-.492846.6062949-1.1693771.45-1.81-1.5908683-6.358837-5.7547081-11.7695827-11.494-14.936-.3118918-.1818095-.4467736-.5623535-.319-.9.1127261-.3517546.4892011-.5455877.841-.433 6.004928 1.8414181 10.7300499 6.502682 12.653 12.482.24101.7250557.8751437 1.2486379 1.6327086 1.348071.757565.099433 1.505336-.2427693 1.9252914-.881071 1.3461914-2.2649673 2.2932972-4.7443549 2.8-7.33.1118191-.5503009-.0138252-1.1222368-.346-1.575-3.5522423-4.8151242-8.4816241-8.4393722-14.137-10.394l-.26-.1c-.1753315-.0682203-.3136986-.2073137-.381-.383-.0702207-.2022091-.0486723-.4249969.059-.61.1330187-.274918.4359789-.4241311.735-.362 4.8338667.9719775 9.2314822 3.4610286 12.553 7.105.5073724.5537978 1.2834309.7745641 2.0063245.5707415s1.269325-.7974699 1.4126755-1.5347415c.2791309-1.615157.4289397-3.2500116.448-4.889.0205391-.5572607-.1977483-1.0967943-.6-1.483-5.425-5.261-12.479-7.642-15.261-8.422-.535278-.1940007-.9271393-.6578364-1.029-1.218.1442998-.2300398.4018065-.3639586.673-.35 4.7587318.3874174 9.2828925 2.2301802 12.958 5.278.5842506.4980973 1.4065767.606566 2.1.277.7148139-.3237314 1.1726441-1.0373041 1.169-1.822v-3.361c.1136837-7.57981627-5.756016-13.90770755-13.323-14.363-5.9573081-.28088652-11.4418888 3.23274193-13.677 8.762-2.2351112-5.52925807-7.7196919-9.04288652-13.677-8.762-7.56698404.45529245-13.43668365 6.78318373-13.323 14.363v3.361c-.0045314.7835271.4511393 1.4967849 1.164 1.822zm.836-5.183c-.11215248-6.51115279 4.91757956-11.95852397 11.417-12.365 3.2809654-.15958912 6.4839209 1.03277727 8.8618282 3.29899868 2.3779073 2.26622142 3.7228609 5.40815742 3.7211718 8.69300132v9c0 .5522847.4477153 1 1 1s1-.4477153 1-1v-9c-.0016891-3.2848439 1.3432645-6.4267799 3.7211718-8.69300132 2.3779073-2.26622141 5.5808628-3.4585878 8.8618282-3.29899868 6.5007731.40587874 11.5328764 5.85247867 11.424 12.365v3.368c-3.9983842-3.3163515-8.922004-5.319322-14.1-5.736-1.2331408-.0822229-2.366913.6766366-2.761 1.848-.0355392.1029265-.0534573.2111116-.053.32.0433975 1.5238107 1.0433935 2.8544668 2.495 3.32 2.635.738 9.313 2.99 14.405 7.932-.0173526 1.5229779-.1510753 3.0424025-.4 4.545-3.6153967-3.96132-8.4010776-6.6649143-13.66-7.717-1.3714676-.2577053-2.7146319.567409-3.1047181 1.9072478s.300254 2.756996 1.5957181 3.2757522l.262.1c5.306426 1.8041655 9.9322386 5.1916815 13.254 9.706-.4592814 2.3316311-1.304205 4.5703405-2.5 6.624-2.1729807-6.562101-7.3685749-11.6791827-13.963-13.752-1.4025097-.4358088-2.8934247.3442952-3.335 1.745-.4267494 1.2684747.1304439 2.6591275 1.315 3.282 5.2246364 2.9025863 9.0098726 7.8438189 10.452 13.644l-.131.149c-1.8619264 2.2373567-4.3220535 3.8987142-7.093 4.79-3.729 1.24-5.783 1.923-7.668 4.282-1.919-2.359-3.973-3.042-7.7-4.282-2.7713336-.8910665-5.2318398-2.5524458-7.094-4.79l-.141-.16c1.4506511-5.7973496 5.2397723-10.7338885 10.465-13.634 1.1646835-.6039788 1.7266229-1.9577803 1.332-3.209-.006-.024-.024-.088-.031-.111-.4532199-1.3815753-1.9324472-2.1425754-3.32-1.708-6.6039519 2.0686599-11.79989638 7.2031338-13.947 13.782-1.20395995-2.0565112-2.05696554-4.2991995-2.524-6.636 3.31972176-4.51902 7.9463482-7.9103669 13.255-9.716l.263-.1c1.2779835-.5291257 1.9538785-1.9344421 1.5694206-3.2631287-.3844579-1.3286865-1.7063509-2.1559392-3.0694206-1.9208713-5.2601822 1.044085-10.04629874 3.7491137-13.654 7.717-.25643553-1.5039044-.39518957-3.0255181-.415-4.551 5.1-4.941 11.774-7.193 14.409-7.931 1.4554124-.4612178 2.4588705-1.7938102 2.5-3.32.0004573-.1088884-.0174608-.2170735-.053-.32-.3918205-1.1735468-1.5277333-1.9335638-2.762-1.848-5.1775135.4133999-10.10142378 2.414044-14.1 5.729z"/><path id="Shape" d="m20.154 45.052c-.3394023 1.0167779-.1105785 2.1373884.6002758 2.9397084.7108543.8023199 1.7957434 1.1644579 2.8460001.95 1.0502566-.214458 1.9063218-.9729305 2.2457241-1.9897084.174522-.5246705-.1093295-1.091478-.634-1.266-.5246705-.1745219-1.091478.1093295-1.266.634-.1814263.5180873-.7415697.7983804-1.265.633-.2517272-.0837568-.4598559-.2641089-.5785747-.501359-.1187189-.2372502-.1382971-.5119521-.0544253-.763641.6894301-2.0053358 1.7941495-3.8426729 3.242-5.392.3958895-.3771429 1.0181105-.3771429 1.414 0 .3883868.3901539.3883868 1.0208461 0 1.411-.3778234.3936813-.3703091 1.017562.0168866 1.402029.3871957.3844671 1.011114.3875691 1.4021134.006971 1.1611547-1.1736278 1.158029-3.0642181-.007-4.234-1.1873934-1.1330821-3.0556066-1.1330821-4.243 0-1.6596203 1.772361-2.9268547 3.8747639-3.719 6.17z"/><path id="Shape" d="m40.735 10.026c.5500756-.05025792.9552579-.5369244.905-1.087s-.5369244-.9552579-1.087-.905c-.4242878.04271079-.8271831-.19497719-.995-.587-.0663063-.16028167-.092729-.33425932-.077-.507.0867125-.50375964.5132771-.87866998 1.024-.9.8641513-.06368888 1.7324041-.04493757 2.593.056.2935972.0284613.5596515.18509297.727.428.1655166.23770008.2171545.53654058.141.816-.0982737.34889105-.0000596.72364644.2567006.97949186s.6318638.35272134.9804018.25320295c.3485381-.09951838.6159376-.37984877.6988976-.73269481.2203844-.84373076.062091-1.74161474-.4335324-2.45911615-.4956235-.71750141-1.2793518-1.18335808-2.1464676-1.27588385-.9817662-.11457842-1.9721483-.13634138-2.958-.065-1.4978171.0847119-2.7145297 1.24050431-2.876 2.732-.041488.49453566.0363603.99180432.227 1.45.5075153 1.19385775 1.7282198 1.9230468 3.02 1.804z"/></g></svg>