<?xml version="1.0" encoding="iso-8859-1"?>
<!-- Generator: Adobe Illustrator 19.0.0, SVG Export Plug-In . SVG Version: 6.00 Build 0)  -->
<svg version="1.1" id="Capa_1" xmlns="http://www.w3.org/2000/svg" xmlns:xlink="http://www.w3.org/1999/xlink" x="0px" y="0px"
	 viewBox="0 0 512 512" style="enable-background:new 0 0 512 512;" xml:space="preserve">
<g>
	<g>
		<path d="M351.515,116.41c-0.922-3.462-3.625-6.164-7.086-7.087c-1.827-0.486-45.089-11.563-76.333,19.682
			c-18.336,18.336-22.185,40.911-22.146,56.788c-1.661-2.007-3.44-3.984-5.372-5.918c-35.858-35.859-85.54-23.138-87.638-22.581
			c-3.461,0.923-6.164,3.625-7.086,7.087c-0.559,2.098-13.279,51.78,22.579,87.638c20.937,20.937,46.702,25.416,64.921,25.416
			c4.806,0,9.084-0.313,12.612-0.716v9.611c0,5.521,4.476,9.999,9.999,9.999s9.999-4.477,9.999-9.999v-38.955
			c0.038-1.64,0.041-3.352,0-5.124v-27.81c2.721,0.263,5.861,0.449,9.318,0.449c15.863,0,38.308-3.902,56.552-22.147
			C363.077,161.499,352,118.236,351.515,116.41z M222.913,220.215c-3.904-3.903-10.236-3.903-14.141,0
			c-3.904,3.904-3.904,10.236,0,14.141l22.976,22.976c-14.297-0.295-33.773-4.049-49.175-19.451
			c-21.523-21.523-20.307-50.083-18.532-62.364c12.269-1.724,40.994-2.903,62.397,18.5c15.405,15.405,19.159,34.886,19.453,49.177
			L222.913,220.215z M317.692,178.602c-11.554,11.554-25.894,15.241-37.358,16.042l17.006-17.006c3.904-3.904,3.904-10.236,0-14.141
			c-3.904-3.903-10.236-3.903-14.141,0l-17.007,17.007c0.801-11.463,4.488-25.804,16.044-37.359
			c17.35-17.35,40.258-16.966,51.015-15.583C334.599,138.31,334.969,161.327,317.692,178.602z"/>
	</g>
</g>
<g>
	<g>
		<path d="M256.256,0.035h-0.292c-5.522,0-9.999,4.477-9.999,9.999c0,5.521,4.476,9.999,9.999,9.999h0.292
			c5.522,0,9.999-4.477,9.999-9.999C266.255,4.513,261.778,0.035,256.256,0.035z"/>
	</g>
</g>
<g>
	<g>
		<path d="M298.567,5.421c-5.345-1.382-10.799,1.836-12.18,7.183c-1.381,5.347,1.836,10.8,7.183,12.18
			c66.164,17.076,112.373,76.788,112.373,145.207c0,54.183-30.669,106.372-78.134,132.956c-3.158,1.769-5.112,5.104-5.112,8.724
			v37.043c-1.559-0.22-3.148-0.341-4.766-0.341H193.948c-1.578,0-3.128,0.117-4.648,0.326v-37.012c0-3.805-2.059-7.33-5.387-9.209
			c-47.339-26.616-77.927-78.621-77.927-132.487c0-66.399,44.503-125.643,108.222-144.072c5.304-1.534,8.361-7.078,6.827-12.383
			c-1.534-5.305-7.08-8.362-12.383-6.827c-34.672,10.028-65.888,31.434-87.898,60.276c-22.744,29.805-34.765,65.425-34.765,103.007
			c0,30.711,8.524,61.12,24.651,87.943c14.647,24.362,34.856,44.722,58.663,59.166v41.271c0,0.198,0.018,0.392,0.03,0.588
			c-5.804,6.101-9.379,14.343-9.379,23.409c0,9.358,3.8,17.844,9.939,23.997c-6.138,6.153-9.939,14.639-9.939,23.997
			c0,18.745,15.25,33.995,33.995,33.995h5.421c4.749,27.013,28.368,47.609,56.721,47.609c28.353,0,51.972-20.596,56.721-47.609
			h5.118c18.745,0,33.995-15.25,33.995-33.995c0-9.358-3.801-17.844-9.94-23.997c6.138-6.153,9.94-14.639,9.94-23.997
			c0-9.009-3.529-17.203-9.268-23.293c0.016-0.234,0.036-0.467,0.036-0.704v-40.961c23.732-14.424,43.89-34.786,58.537-59.195
			c16.167-26.935,24.711-57.442,24.711-88.224C425.94,92.451,373.562,24.776,298.567,5.421z M256.091,491.968
			c-17.277,0-31.861-11.713-36.251-27.612h72.502C287.951,480.255,273.368,491.968,256.091,491.968z M317.931,444.359H193.949
			c-7.718,0-13.998-6.279-13.998-13.998c0-7.719,6.279-13.998,13.998-13.998h123.983c7.719,0,13.998,6.279,13.998,13.998
			C331.929,438.08,325.649,444.359,317.931,444.359z M317.931,396.366H193.949c-7.718,0-13.998-6.279-13.998-13.998
			s6.279-13.998,13.998-13.998h123.983c7.719,0,13.998,6.279,13.998,13.998S325.649,396.366,317.931,396.366z"/>
	</g>
</g>
<g>
	<g>
		<path d="M263.033,313.923c-1.86-1.86-4.439-2.93-7.069-2.93s-5.209,1.069-7.069,2.93c-1.86,1.86-2.93,4.439-2.93,7.069
			s1.07,5.209,2.93,7.068c1.86,1.86,4.439,2.931,7.069,2.931s5.209-1.07,7.069-2.931c1.86-1.859,2.93-4.438,2.93-7.068
			S264.893,315.783,263.033,313.923z"/>
	</g>
</g>
<g>
	<g>
		<path d="M454.41,126.573c-3.904-3.903-10.236-3.903-14.141,0c-3.904,3.904-3.904,10.236,0,14.141
			c16.463,16.463,16.463,43.248,0,59.711c-3.904,3.904-3.904,10.236,0,14.141c1.953,1.952,4.511,2.929,7.07,2.929
			s5.118-0.977,7.07-2.929C478.669,190.305,478.669,150.831,454.41,126.573z"/>
	</g>
</g>
<g>
	<g>
		<path d="M482.246,98.736c-3.904-3.902-10.236-3.902-14.14,0c-3.904,3.904-3.905,10.236,0,14.141
			c15.411,15.41,23.897,35.899,23.897,57.692c0,21.793-8.487,42.281-23.897,57.691c-3.904,3.904-3.905,10.236,0,14.141
			c1.953,1.952,4.511,2.929,7.07,2.929s5.118-0.977,7.07-2.929C501.433,223.214,512,197.704,512,170.569
			C512,143.433,501.432,117.923,482.246,98.736z"/>
	</g>
</g>
<g>
	<g>
		<path d="M71.73,140.713c3.905-3.904,3.904-10.236,0-14.14c-3.904-3.903-10.236-3.903-14.14,0
			c-24.259,24.26-24.259,63.732,0,87.992c1.953,1.952,4.511,2.929,7.07,2.929s5.118-0.977,7.07-2.929
			c3.904-3.904,3.905-10.236,0-14.141C55.268,183.961,55.268,157.175,71.73,140.713z"/>
	</g>
</g>
<g>
	<g>
		<path d="M19.997,170.569c0-21.793,8.487-42.282,23.897-57.692c3.904-3.904,3.904-10.236,0-14.141
			c-3.904-3.903-10.236-3.903-14.14,0C10.567,117.923,0,143.433,0,170.569s10.567,52.645,29.754,71.832
			c1.953,1.952,4.511,2.929,7.07,2.929c2.559,0,5.118-0.977,7.07-2.929c3.904-3.904,3.904-10.236,0-14.141
			C28.484,212.85,19.997,192.36,19.997,170.569z"/>
	</g>
</g>
<g>
</g>
<g>
</g>
<g>
</g>
<g>
</g>
<g>
</g>
<g>
</g>
<g>
</g>
<g>
</g>
<g>
</g>
<g>
</g>
<g>
</g>
<g>
</g>
<g>
</g>
<g>
</g>
<g>
</g>
</svg>
