<svg height="457pt" viewBox="-56 0 457 457.14286" width="457pt" xmlns="http://www.w3.org/2000/svg"><path d="m237.554688 405.460938c.265624.019531.527343.03125.785156.03125 4.695312 0 8.695312-3.605469 9.097656-8.367188l20.355469-239.375c.429687-5.03125-3.300781-9.460938-8.328125-9.886719-5.171875-.433593-9.464844 3.300781-9.882813 8.332031l-20.359375 239.375c-.429687 5.03125 3.304688 9.460938 8.332032 9.890626zm0 0"/><path d="m172.5 405.492188c5.054688 0 9.144531-4.09375 9.144531-9.144532v-239.375c0-5.046875-4.089843-9.140625-9.144531-9.140625s-9.144531 4.09375-9.144531 9.140625v239.375c0 5.050782 4.089843 9.144532 9.144531 9.144532zm0 0"/><path d="m106.667969 405.492188c.261719 0 .519531-.011719.789062-.03125 5.023438-.429688 8.757813-4.859376 8.328125-9.890626l-20.367187-239.375c-.417969-5.035156-4.8125-8.761718-9.882813-8.332031-5.027344.425781-8.757812 4.855469-8.328125 9.886719l20.363281 239.375c.402344 4.769531 4.402344 8.367188 9.097657 8.367188zm0 0"/><path d="m309.097656 43.707031h-77.4375v-34.5625c0-5.050781-4.089844-9.144531-9.140625-9.144531h-99.929687c-5.054688 0-9.144532 4.09375-9.144532 9.144531v34.5625h-77.535156c-19.757812 0-35.8398435 16.074219-35.8398435 35.835938v25.78125c0 5.050781 4.0898435 9.144531 9.1445315 9.144531h7.246094l32.386718 334.410156c.457032 4.6875 4.394532 8.265625 9.097656 8.265625h229.214844c4.707032 0 8.652344-3.578125 9.097656-8.265625l32.300782-334.410156h7.335937c5.050781 0 9.140625-4.09375 9.140625-9.144531v-25.78125c0-19.761719-16.125-35.835938-35.9375-35.835938zm-177.367187-25.421875h81.644531v25.421875h-81.644531zm-113.375 61.257813c0-9.675781 7.875-17.550781 17.554687-17.550781h273.1875c9.734375 0 17.652344 7.875 17.652344 17.550781v16.640625h-308.394531zm260.5 359.3125h-212.605469l-31.421875-324.386719h275.363281zm0 0"/></svg>