<svg id="_x33_0" enable-background="new 0 0 64 64" height="512" viewBox="0 0 64 64" width="512" xmlns="http://www.w3.org/2000/svg"><path d="m55.741 34.997c-.804.402-15.954 8.096-22.139 18.493 1.009-6.75 3.413-19.718 8.165-30.736.514.155 1.042.248 1.572.248.497 0 .99-.076 1.469-.21.421.128.89.203 1.401.203 2.646 0 6.215-1.784 7.855-5.987.689-1.768 1.562-6.531 1.905-8.498.154-.884-.294-1.769-1.09-2.151-1.205-.577-2.468-.414-3.901.143.107-1.356-.708-2.657-2.033-3.13l-.526-.188c-1.089-.389-2.291-.128-3.121.591-.665-1.194-1.699-2.299-2.656-2.652-.844-.312-1.792-.013-2.306.729-1.391 2.008-3.829 5.626-4.531 7.289-2.056 4.868.2 9.316 2.605 10.662.347.798.903 1.476 1.582 2.013-3.889 8.965-6.241 19.206-7.558 26.483-.603-5.946-1.852-13.686-4.434-20.478.682-.537 1.241-1.217 1.59-2.018 2.405-1.346 4.661-5.794 2.605-10.662-.702-1.663-3.141-5.281-4.531-7.289-.515-.742-1.465-1.04-2.305-.729-.958.353-1.994 1.461-2.659 2.655-.835-.723-2.035-.982-3.12-.594l-.526.188c-1.33.475-2.146 1.785-2.035 3.129-1.431-.557-2.694-.72-3.9-.141-.796.382-1.244 1.267-1.09 2.151.343 1.966 1.216 6.73 1.905 8.498 1.641 4.204 5.21 5.987 7.855 5.987.511 0 .98-.075 1.401-.203.479.134.973.21 1.469.21.524 0 1.045-.092 1.553-.243 3.262 8.715 4.302 19.25 4.632 24.997-5.882-10.27-21.885-18.349-22.712-18.761l-1.466-.73.02 1.637c.002.271.612 27.097 25.312 27.097 21.637 0 25.15-26.718 25.183-26.988l.227-1.85zm-1.742-26.83c-.26 1.488-1.156 6.47-1.798 8.114-1.031 2.643-2.933 4.013-4.584 4.504.255-.382.471-.789.602-1.238.656-2.253 1.752-7.703 2.33-10.663 1.738-.856 2.75-1.066 3.45-.717zm-6.252-3.1.526.188c.52.186.815.699.698 1.245-.018.095-1.797 9.478-2.673 12.487-.204.701-.703 1.285-1.406 1.644-.824.421-1.837.483-2.714.17-.871-.311-1.601-.993-1.952-1.823-.301-.711-.301-1.469.002-2.132 1.301-2.857 6.087-11.168 6.146-11.272.261-.475.85-.696 1.373-.507zm-9.339 10.95c-.122.268-.208.544-.276.824-1.04-1.512-1.693-4.064-.486-6.923.456-1.078 2.076-3.668 4.303-6.92.722.266 1.834 1.839 2.014 2.762-1.379 2.418-4.499 7.939-5.555 10.257zm-12.388-7.027c2.258 3.261 3.878 5.851 4.334 6.929 1.207 2.858.554 5.411-.486 6.923-.067-.28-.154-.557-.276-.824-1.057-2.321-4.184-7.855-5.555-10.256.179-.925 1.29-2.498 1.983-2.772zm-10.221 13.29c-.642-1.644-1.538-6.626-1.813-8.118.72-.347 1.732-.133 3.466.72.581 2.971 1.675 8.413 2.33 10.663.13.448.347.855.601 1.237-1.652-.491-3.554-1.86-4.584-4.502zm7.308 4.351c-.703-.359-1.202-.942-1.406-1.644-.876-3.009-2.655-12.392-2.678-12.511-.112-.522.184-1.036.703-1.221l.526-.188c.126-.045.255-.066.382-.066.405 0 .796.216 1.002.594.048.083 4.834 8.394 6.135 11.251.303.663.303 1.42.002 2.132-.352.831-1.081 1.512-1.952 1.823-.876.314-1.891.251-2.714-.17zm-11.334 21.944c-2.032-4.285-2.728-8.625-2.966-10.956 5.089 2.797 20.868 12.229 22.107 22.154-2.419-1.519-11.597-7.584-15.025-14.232l-1.777.917c3.316 6.43 11.262 12.104 14.729 14.367-7.868-.848-13.604-4.951-17.068-12.25zm39.286-.046c-3.991 7.581-9.711 11.729-17.017 12.373 3.4-2.208 11.492-7.938 14.848-14.444l-1.777-.917c-2.962 5.743-10.218 11.053-13.697 13.371 2.567-9.797 16.44-18.357 21.433-21.161-.496 2.391-1.596 6.609-3.79 10.778z"/></svg>